# xmcd
#
# Track frame offsets: 
#        150
#        16635
#        58265
#        81118
#        105483
#        129996
#        155228
#        173781
#        204121
#        221190
#        234403
#        244539
#        265127
#        291446
#        312713
#
# Disc length: 4488 seconds
#
# Revision: 0
# Processed by: cddbd v1.5.2PL0 Copyright (c) Steve Scherf et al.
# Submitted via: ExactAudioCopy v0.99pb4
#
DISCID=d211860f
DTITLE=Various Artist - The Greatest Blues Show on Earth
DYEAR=2005
DGENRE=Blues
TTITLE0=Messin' with the kid - Buddy Guy and Junior Wells
TTITLE1=Gambler´s Blues - Otis Rush
TTITLE2=Stormy monday - Etta James
TTITLE3=Mannish Boy - Muddy Waters
TTITLE4=Born under a bad sign - Albert King
TTITLE5=Key to the highway - Freddie King
TTITLE6=Night time is the right time - Sonny Boy Williamson
TTITLE7=Rock me baby - Big Mama Thornton
TTITLE8=Somebody loan me a dime - Fenton Robinson
TTITLE9=I asked for whiskey, she brought me gasoline - Mississippi Fre
TTITLE9=d McDowell
TTITLE10=Boogie Chillen´ - John Lee Hooker
TTITLE11=Mojo Boogie - J.B. Lenior and Sunnyland Slim
TTITLE12=Frosty - Albert Collins
TTITLE13=Black Cat Bone - Johnny Winter
TTITLE14=One eyed woman - Lightnin Hopkins
EXTD=
EXTT0=
EXTT1=
EXTT2=
EXTT3=
EXTT4=
EXTT5=
EXTT6=
EXTT7=
EXTT8=
EXTT9=
EXTT10=
EXTT11=
EXTT12=
EXTT13=
EXTT14=
PLAYORDER=
